<svg width="284" height="165" viewBox="0 0 284 165" fill="none" xmlns="http://www.w3.org/2000/svg">
  <!-- Card Outline -->
  <rect x="1" y="1" width="282" height="163" rx="12" fill="#191415" stroke="#ba2424" stroke-width="3"></rect>
  <!-- Top Timeline dots & lines -->
  <rect x="18" y="18" width="248" height="5" rx="2.5" fill="#fff" opacity="0.14"></rect>
  <g>
    <!-- Timeline Dots -->
    <circle cx="33" cy="20.5" r="3" fill="#e84536"></circle>
    <circle cx="54" cy="20.5" r="3" fill="#e84536"></circle>
    <circle cx="75" cy="20.5" r="3" fill="#e84536"></circle>
    <circle cx="96" cy="20.5" r="3" fill="#e84536"></circle>
    <circle cx="117" cy="20.5" r="3" fill="#e84536"></circle>
    <circle cx="138" cy="20.5" r="3" fill="#e84536"></circle>
    <circle cx="159" cy="20.5" r="3" fill="#e84536"></circle>
    <circle cx="180" cy="20.5" r="3" fill="#e84536"></circle>
    <circle cx="201" cy="20.5" r="3" fill="#e84536"></circle>
    <circle cx="222" cy="20.5" r="3" fill="#e84536"></circle>
    <circle cx="243" cy="20.5" r="3" fill="#e84536"></circle>
    <rect x="90" y="28" width="52" height="9" rx="4" fill="#e84536"></rect>
    <rect x="135" y="28" width="22" height="9" rx="4" fill="#ba2424"></rect>
    <rect x="152" y="28" width="14" height="9" rx="4" fill="#5d2827"></rect>
    <!-- "X" indicator (right of bar) -->
    <text x="168" y="35.5" font-size="13" font-weight="bold" fill="#fff" opacity="0.8" text-anchor="middle">×</text>
  </g>
  <!-- Replay + Code split view main area -->
  <rect x="22" y="47" width="120" height="78" rx="5" fill="#181112" stroke="#ededed" stroke-width="1"></rect>
  <g>
    <!-- Left Panel (dashboard widget) -->
    <rect x="32" y="55" width="64" height="54" rx="4" fill="#fff" opacity="0.08" stroke="#ba2424" stroke-width="1"></rect>
    <!-- "Rows" of activity in dashboard -->
    <rect x="38" y="62" width="16" height="8" rx="2" fill="#e84536" opacity="0.75"></rect>
    <rect x="38" y="76" width="16" height="8" rx="2" fill="#ba2424" opacity="0.6"></rect>
    <rect x="38" y="90" width="16" height="8" rx="2" fill="#fff" opacity="0.15"></rect>
    <!-- "Buttons" -->
    <rect x="74" y="62" width="12" height="8" rx="2" fill="#e84536" opacity="0.9"></rect>
    <rect x="74" y="76" width="12" height="8" rx="2" fill="#fff" opacity="0.18"></rect>
    <rect x="74" y="90" width="12" height="8" rx="2" fill="#fff" opacity="0.18"></rect>
    <!-- Row underlines -->
    <rect x="38" y="70" width="48" height="2" rx="1" fill="#ededed" opacity="0.08"></rect>
    <rect x="38" y="84" width="48" height="2" rx="1" fill="#ededed" opacity="0.08"></rect>
  </g>
  <!-- Right "code viewer" panel, shifted further right -->
  <rect x="132" y="55" width="120" height="66" rx="6" fill="#181112" stroke="#ededed" stroke-width="1"></rect>
  <!-- Code "lines", also shifted -->
  <g>
    <rect x="142" y="62" width="98" height="6" rx="2" fill="#fff" opacity="0.18"></rect>
    <rect x="142" y="72" width="91" height="6" rx="2" fill="#e84536" opacity="0.15"></rect>
    <rect x="142" y="82" width="104" height="6" rx="2" fill="#fff" opacity="0.14"></rect>
    <rect x="142" y="92" width="70" height="6" rx="2" fill="#fff" opacity="0.10"></rect>
    <rect x="142" y="102" width="80" height="6" rx="2" fill="#e84536" opacity="0.13"></rect>
    <rect x="142" y="112" width="104" height="6" rx="2" fill="#fff" opacity="0.15"></rect>
  </g>
  <!-- Play/Pause/Slider Controls (bottom left) -->
  <g>
    <rect x="22" y="135" width="18" height="10" rx="2" fill="#222"></rect>
    <!-- Play button (triangle) -->
    <polygon points="26,138 32,140 26,142" fill="#e84536"></polygon>
    <!-- Pause lines -->
    <rect x="34" y="138" width="2" height="6" rx="1" fill="#fff" opacity="0.7"></rect>
    <rect x="38" y="138" width="2" height="6" rx="1" fill="#fff" opacity="0.7"></rect>
    <!-- Slider track -->
    <rect x="46" y="140" width="82" height="3" rx="1.5" fill="#fff" opacity="0.12"></rect>
    <!-- Slider thumb -->
    <circle cx="70" cy="141.5" r="4" fill="#e84536"></circle>
  </g>
</svg>
