<svg width="292" height="169" viewBox="0 0 292 169" fill="none" xmlns="http://www.w3.org/2000/svg">
  <rect x="2" y="2" width="288" height="165" rx="12" fill="#18181b" stroke="#ff2d20" stroke-width="4"></rect>
  <!-- Top bar -->
  <rect x="16" y="14" width="44" height="7" rx="3" fill="#991b1b"></rect>
  <rect x="68" y="14" width="24" height="7" rx="3" fill="#27272a"></rect>
  <!-- Line chart -->
  <rect x="16" y="35" width="120" height="28" rx="4" fill="#27272a"></rect>
  <polyline points="18,57 28,49 38,53 48,43 58,42 68,45 78,48 88,42 98,46 108,39 118,47 134,43" fill="none" stroke="#ff2d20" stroke-width="2"></polyline>
  <!-- Table section -->
  <rect x="16" y="68" width="190" height="32" rx="4" fill="#232323"></rect>
  <rect x="20" y="74" width="90" height="4" rx="2" fill="#ff2d20"></rect>
  <rect x="20" y="81" width="75" height="4" rx="2" fill="#b91c1c"></rect>
  <rect x="20" y="88" width="65" height="4" rx="2" fill="#a1a1aa"></rect>
  <!-- Right charts -->
  <rect x="220" y="35" width="56" height="15" rx="3" fill="#232323"></rect>
  <rect x="220" y="56" width="56" height="7" rx="2" fill="#232323"></rect>
  <rect x="220" y="68" width="56" height="7" rx="2" fill="#232323"></rect>
  <!-- Right line charts -->
  <polyline points="223,65 228,66 233,68 238,64 243,62 248,63 253,68" fill="none" stroke="#ff2d20" stroke-width="1"></polyline>
  <polyline points="223,75 228,74 233,77 238,76 243,75 248,77 253,78" fill="none" stroke="#991b1b" stroke-width="1"></polyline>
  <!-- Bottom bar -->
  <rect x="16" y="112" width="210" height="12" rx="5" fill="#232323"></rect>
  <rect x="20" y="116" width="100" height="4" rx="2" fill="#ff2d20"></rect>
  <rect x="124" y="116" width="90" height="4" rx="2" fill="#991b1b"></rect>
</svg>
